<?xml version="1.0" standalone="no"?>
<!DOCTYPE svg PUBLIC "-//W3C//DTD SVG 20010904//EN"
 "http://www.w3.org/TR/2001/REC-SVG-20010904/DTD/svg10.dtd">
<svg version="1.0" xmlns="http://www.w3.org/2000/svg"
 width="260.000000pt" height="260.000000pt" viewBox="0 0 260.000000 260.000000"
 preserveAspectRatio="xMidYMid meet">
<metadata>
Created by potrace 1.14, written by Peter Selinger 2001-2017
</metadata>
<g transform="translate(0.000000,260.000000) scale(0.100000,-0.100000)"
fill="#000000" stroke="none">
<path d="M1115 2536 c-416 -70 -750 -314 -934 -682 -91 -183 -126 -337 -126
-554 0 -217 35 -371 126 -554 66 -132 126 -214 238 -327 185 -184 382 -291
641 -346 118 -25 362 -25 480 0 259 55 456 162 641 346 184 185 291 382 346
641 25 118 25 362 0 480 -55 259 -162 456 -346 641 -184 183 -384 291 -636
344 -107 23 -327 28 -430 11z m720 -941 c88 -23 143 -68 185 -150 l35 -68 0
-146 c0 -145 0 -147 -33 -213 -65 -132 -156 -183 -327 -183 -168 0 -248 42
-307 163 -33 66 -33 68 -33 212 0 135 2 149 26 200 47 101 124 165 226 189 61
14 164 12 228 -4z m-1077 -7 c5 -7 49 -137 97 -288 48 -151 90 -281 94 -287 4
-7 44 108 90 255 114 365 96 332 176 332 44 0 67 -4 71 -13 5 -14 -230 -713
-248 -734 -7 -9 -37 -13 -94 -13 -76 0 -85 2 -97 23 -8 12 -67 179 -132 370
-97 285 -116 350 -104 358 22 14 135 11 147 -3z"/>
<path d="M1630 1464 c-46 -20 -68 -41 -93 -89 -19 -34 -22 -57 -22 -155 0
-103 3 -120 25 -165 35 -70 90 -98 178 -92 74 6 120 35 154 100 20 36 23 58
23 157 0 103 -3 120 -25 165 -19 38 -35 55 -70 73 -52 26 -119 28 -170 6z"/>
</g>
</svg>
